<svg width="83" height="40" viewBox="0 0 83 40" fill="none" xmlns="http://www.w3.org/2000/svg">
<rect x="0.813725" y="0.872563" width="81.3726" height="37.4314" rx="18.7157" stroke="#A5ABB3" stroke-width="1.62745"/>
<circle cx="20.7936" cy="19.226" r="14.1381" fill="#A5ABB3" stroke="#A5ABB3" stroke-width="0.285618"/>
<path d="M47.8324 14.5303C48.7893 14.5303 49.6144 14.7305 50.3077 15.1308C51.001 15.5312 51.5332 16.1024 51.9043 16.8445C52.2851 17.5866 52.4755 18.4752 52.4755 19.5103C52.4755 20.5453 52.2851 21.4339 51.9043 22.176C51.5332 22.9182 51.001 23.4894 50.3077 23.8898C49.6144 24.2901 48.7893 24.4903 47.8324 24.4903C46.8754 24.4903 46.0454 24.2901 45.3424 23.8898C44.6491 23.4894 44.112 22.9182 43.7312 22.176C43.3601 21.4339 43.1746 20.5453 43.1746 19.5103C43.1746 18.4752 43.3601 17.5866 43.7312 16.8445C44.112 16.1024 44.6491 15.5312 45.3424 15.1308C46.0454 14.7305 46.8754 14.5303 47.8324 14.5303ZM47.8324 16.1854C47.2856 16.1854 46.8217 16.3123 46.4409 16.5662C46.0601 16.8201 45.7671 17.196 45.5621 17.694C45.3668 18.1823 45.2691 18.7877 45.2691 19.5103C45.2691 20.2231 45.3668 20.8285 45.5621 21.3265C45.7671 21.8245 46.0601 22.2005 46.4409 22.4543C46.8217 22.7082 47.2856 22.8352 47.8324 22.8352C48.3694 22.8352 48.8284 22.7082 49.2092 22.4543C49.59 22.2005 49.8781 21.8245 50.0734 21.3265C50.2784 20.8285 50.381 20.2231 50.381 19.5103C50.381 18.7877 50.2784 18.1823 50.0734 17.694C49.8781 17.196 49.59 16.8201 49.2092 16.5662C48.8284 16.3123 48.3694 16.1854 47.8324 16.1854ZM61.7502 16.3026H56.5358V18.7633H60.6516V20.3891H56.5358V24.3438H54.5145V14.6768H61.7502V16.3026ZM70.7186 16.3026H65.5043V18.7633H69.6201V20.3891H65.5043V24.3438H63.483V14.6768H70.7186V16.3026Z" fill="#A5ABB3"/>
</svg>
