<svg width="83" height="40" viewBox="0 0 83 40" fill="none" xmlns="http://www.w3.org/2000/svg">
<rect width="83" height="39.0588" rx="19.5294" fill="#17DB94"/>
<circle cx="63.9162" cy="19.1671" r="14.2809" fill="white"/>
<path d="M20.079 14.4714C21.0359 14.4714 21.861 14.6716 22.5543 15.072C23.2476 15.4723 23.7798 16.0436 24.1508 16.7857C24.5317 17.5278 24.7221 18.4164 24.7221 19.4514C24.7221 20.4865 24.5317 21.3751 24.1508 22.1172C23.7798 22.8593 23.2476 23.4306 22.5543 23.8309C21.861 24.2313 21.0359 24.4314 20.079 24.4314C19.122 24.4314 18.292 24.2313 17.589 23.8309C16.8957 23.4306 16.3586 22.8593 15.9778 22.1172C15.6067 21.3751 15.4212 20.4865 15.4212 19.4514C15.4212 18.4164 15.6067 17.5278 15.9778 16.7857C16.3586 16.0436 16.8957 15.4723 17.589 15.072C18.292 14.6716 19.122 14.4714 20.079 14.4714ZM20.079 16.1266C19.5321 16.1266 19.0683 16.2535 18.6875 16.5074C18.3067 16.7613 18.0137 17.1372 17.8087 17.6352C17.6134 18.1234 17.5157 18.7289 17.5157 19.4514C17.5157 20.1643 17.6134 20.7697 17.8087 21.2677C18.0137 21.7657 18.3067 22.1416 18.6875 22.3955C19.0683 22.6494 19.5321 22.7763 20.079 22.7763C20.616 22.7763 21.075 22.6494 21.4558 22.3955C21.8366 22.1416 22.1247 21.7657 22.32 21.2677C22.525 20.7697 22.6275 20.1643 22.6275 19.4514C22.6275 18.7289 22.525 18.1234 22.32 17.6352C22.1247 17.1372 21.8366 16.7613 21.4558 16.5074C21.075 16.2535 20.616 16.1266 20.079 16.1266ZM35.066 14.6179V24.285H32.7518L29.3683 18.6019L28.5334 17.02H28.5188L28.5773 18.6898V24.285H26.7611V14.6179H29.0607L32.4442 20.2863L33.279 21.8829H33.3083L33.2498 20.2131V14.6179H35.066Z" fill="#343434"/>
</svg>
